<svg width="163" height="31" viewBox="0 0 163 31" fill="none" xmlns="http://www.w3.org/2000/svg">
<g clip-path="url(#clip0_432_2152)">
<path d="M42.1844 23.276V9.15196H44.4664L45.0207 11.1744C45.6727 10.014 46.9441 8.88672 48.9327 8.88672C50.7909 8.88672 52.3556 9.84822 53.0402 11.4397C53.6596 10.1798 55.1266 8.88672 57.2782 8.88672C60.1796 8.88672 62.2334 11.307 62.2334 14.6889V23.276H59.1691V14.9873C59.1691 13.0643 58.0606 11.6717 56.4632 11.6717C54.8658 11.6717 53.7249 13.0643 53.7249 14.9873V23.276H50.6604V14.9873C50.6604 13.0643 49.5521 11.6717 47.9547 11.6717C46.3573 11.6717 45.2162 13.0643 45.2162 14.9873V23.276H42.1844Z" fill="black"/>
<path d="M65.4934 5.2726C65.4934 4.14533 66.3084 3.34961 67.4168 3.34961C68.5252 3.34961 69.3076 4.17849 69.3076 5.2726C69.3076 6.39988 68.4926 7.16244 67.4168 7.16244C66.2758 7.16244 65.4934 6.36672 65.4934 5.2726ZM65.852 23.2758V9.15175H68.9164V23.2427H65.852V23.2758Z" fill="black"/>
<path d="M72.6328 23.276V9.15196H74.9148L75.5342 11.2739C76.4144 9.78191 77.9792 8.88672 79.707 8.88672C82.7388 8.88672 84.9882 11.3402 84.9882 14.7552V23.276H81.9238V15.1199C81.9238 13.0974 80.685 11.7049 78.892 11.7049C77.0338 11.7049 75.7298 13.1306 75.7298 15.1199V23.276H72.6328Z" fill="black"/>
<path d="M88.1831 5.2726C88.1831 4.14533 88.9981 3.34961 90.1065 3.34961C91.2149 3.34961 91.9973 4.17849 91.9973 5.2726C91.9973 6.39988 91.1823 7.16244 90.1065 7.16244C88.9981 7.16244 88.1831 6.36672 88.1831 5.2726ZM88.5743 23.2758V9.15175H91.6387V23.2427H88.5743V23.2758Z" fill="black"/>
<path d="M113.252 15.3524V23.2764H110.97L110.318 21.055C109.666 22.2155 108.134 23.5417 105.852 23.5417C103.016 23.5417 101.027 21.685 101.027 19.0326C101.027 16.4133 103.049 14.6229 107.156 14.6229H110.155C110.025 12.7663 109.047 11.5727 107.352 11.5727C105.95 11.5727 105.005 12.4016 104.581 13.2636L101.745 12.7663C102.429 10.3128 104.809 8.92027 107.515 8.92027C111.068 8.88711 113.252 11.2411 113.252 15.3524ZM110.188 17.0764H107.287C104.939 17.0764 104.157 17.839 104.157 18.9331C104.157 20.1598 105.102 20.9556 106.602 20.9556C108.754 20.9224 110.188 19.3641 110.188 17.0764Z" fill="black"/>
<path d="M116.708 28.8461V9.15196H118.99L119.642 11.4397C120.587 10.2461 122.38 8.88672 124.891 8.88672C128.868 8.88672 131.671 11.937 131.671 16.214C131.671 20.491 128.9 23.5413 124.923 23.5413C122.478 23.5413 120.75 22.2814 119.805 21.1209V28.8461H116.708ZM128.477 16.214C128.477 13.5616 126.716 11.6717 124.141 11.6717C121.565 11.6717 119.772 13.5284 119.772 16.214C119.772 18.8664 121.565 20.7562 124.141 20.7562C126.716 20.7562 128.477 18.8664 128.477 16.214Z" fill="black"/>
<path d="M134.475 28.8461V9.15196H136.757L137.409 11.4397C138.354 10.2461 140.147 8.88672 142.658 8.88672C146.635 8.88672 149.438 11.937 149.438 16.214C149.438 20.491 146.635 23.5413 142.658 23.5413C140.213 23.5413 138.485 22.2814 137.539 21.1209V28.8461H134.475ZM146.244 16.214C146.244 13.5616 144.483 11.6717 141.908 11.6717C139.332 11.6717 137.539 13.5284 137.539 16.214C137.539 18.8664 139.332 20.7562 141.908 20.7562C144.483 20.7562 146.244 18.8664 146.244 16.214Z" fill="black"/>
<path d="M151.297 19.2974L154.263 18.7669C154.72 20.0931 155.893 20.8557 157.458 20.8557C158.697 20.8557 159.87 20.4246 159.87 19.2974C159.87 18.2032 158.501 17.8054 156.936 17.3744C154.72 16.7444 152.046 15.9487 152.046 12.9979C152.046 10.1797 154.524 8.85352 157.36 8.85352C160.099 8.85352 162.218 10.4118 163 12.8653L160.131 13.3626C159.61 12.2022 158.664 11.5059 157.393 11.5059C156.252 11.5059 155.241 12.0032 155.241 12.9316C155.241 14.0589 156.643 14.4899 158.273 14.954C160.457 15.584 163.033 16.4129 163.033 19.1979C163.033 21.4856 161.207 23.4749 157.23 23.4749C154.068 23.5412 151.883 21.9166 151.297 19.2974Z" fill="black"/>
<path d="M0 14.8535C0 7.89091 0 4.37647 2.1516 2.18824C4.3032 0 7.7588 0 14.6048 0H15.8762C22.7222 0 26.1778 0 28.3294 2.18824C30.481 4.37647 30.481 7.85775 30.481 14.8535V16.1465C30.481 23.1091 30.481 26.6235 28.3294 28.8118C26.1778 31 22.7548 31 15.8762 31H14.6048C7.7588 31 4.3032 31 2.1516 28.8118C0 26.6235 0 23.1091 0 16.1465V14.8535Z" fill="#2787F5"/>
<path fill-rule="evenodd" clip-rule="evenodd" d="M8.24784 9.6815H6.09624C5.47684 9.6815 5.34644 9.94674 5.34644 10.3114C5.34644 10.9414 6.09624 13.9253 8.89984 17.8045C10.6928 20.5232 13.3334 21.9489 15.6154 21.9489C17.0172 21.9489 17.278 21.551 17.278 21.0537V18.9981C17.278 18.3681 17.4084 18.2355 17.8974 18.2355C18.2886 18.2355 18.7776 18.3681 20.049 19.6612C21.5812 21.2195 21.842 21.8494 22.7222 21.8494H25.0042C25.6236 21.8494 26.0148 21.4516 25.754 20.9542C25.4932 20.3243 24.8738 19.3959 23.8632 18.2355C23.3416 17.6056 22.5918 16.9425 22.331 16.5446C21.9398 16.1467 22.0702 15.9147 22.331 15.5168C22.331 15.5168 25.0042 11.6376 25.3954 10.3446C25.5258 9.81412 25.3954 9.58203 24.776 9.58203H22.494C21.9724 9.58203 21.7442 9.84727 21.4834 10.212C21.4834 10.212 20.3424 13.0633 18.6798 14.8537C18.1582 15.3842 17.93 15.4836 17.6692 15.4836C17.5388 15.4836 17.278 15.351 17.278 14.8537V10.4772C17.278 9.94674 17.1476 9.71465 16.6586 9.71465H13.1052C12.714 9.71465 12.5836 9.97989 12.5836 10.2451C12.5836 10.7756 13.3334 10.8751 13.4638 12.4334V15.782C13.4638 16.5446 13.3334 16.6772 13.0726 16.6772C12.3228 16.6772 10.5298 13.8259 9.38884 10.6098C9.03024 9.94674 8.76944 9.6815 8.24784 9.6815Z" fill="white"/>
</g>
<defs>
<clipPath id="clip0_432_2152">
<rect width="163" height="31" fill="white"/>
</clipPath>
</defs>
</svg>
