<svg width="15" height="15" viewBox="0 0 15 15" fill="none" xmlns="http://www.w3.org/2000/svg">
<path d="M7.47917 0.0214844C3.34849 0.0214844 0 3.36997 0 7.50065C0 11.6313 3.34849 14.9798 7.47917 14.9798C11.6098 14.9798 14.9583 11.6313 14.9583 7.50065C14.9583 3.36997 11.6098 0.0214844 7.47917 0.0214844ZM10.3555 8.4597C10.3555 8.4597 11.017 9.11257 11.1798 9.41563C11.1845 9.42238 11.1873 9.42758 11.1884 9.43121C11.2543 9.54184 11.2707 9.62936 11.2374 9.69376C11.1829 9.80127 10.9959 9.85425 10.932 9.85893H9.76343C9.6824 9.85893 9.51256 9.83789 9.30689 9.6961C9.14874 9.58547 8.99292 9.40394 8.841 9.22709C8.61429 8.96376 8.41796 8.73627 8.22007 8.73627C8.19493 8.73616 8.16994 8.74011 8.14606 8.74796C7.99648 8.79626 7.80482 9.00973 7.80482 9.57846C7.80482 9.75609 7.66459 9.85815 7.56564 9.85815H7.03042C6.84811 9.85815 5.89841 9.79426 5.05701 8.90689C4.02706 7.82007 3.09996 5.64021 3.09217 5.61995C3.03374 5.47894 3.15449 5.40337 3.28616 5.40337H4.46646C4.62384 5.40337 4.67526 5.49919 4.7111 5.58411C4.75317 5.68306 4.90742 6.07649 5.16062 6.51901C5.5712 7.24044 5.82284 7.53337 6.02462 7.53337C6.06246 7.53293 6.09962 7.5233 6.13292 7.50533C6.39625 7.35886 6.34716 6.42007 6.33548 6.2253C6.33548 6.18868 6.3347 5.80537 6.19992 5.62151C6.10331 5.48829 5.93893 5.43765 5.8392 5.41895C5.87957 5.36325 5.93274 5.31809 5.99424 5.28728C6.17499 5.19691 6.50064 5.18367 6.82396 5.18367H7.00393C7.35451 5.18834 7.44489 5.21094 7.57188 5.24288C7.82897 5.30442 7.83443 5.47037 7.81183 6.03832C7.80482 6.19959 7.79781 6.38189 7.79781 6.59692L7.79547 6.7465C7.78768 7.03554 7.77833 7.36353 7.98245 7.49831C8.00877 7.51567 8.03974 7.52464 8.07127 7.52402C8.14216 7.52402 8.35563 7.52402 8.93371 6.53226C9.11132 6.21269 9.26622 5.88102 9.39726 5.53971C9.40895 5.51945 9.44323 5.45712 9.48374 5.43297C9.51395 5.41862 9.5469 5.41091 9.58035 5.41038H10.9679C11.119 5.41038 11.2226 5.43297 11.2421 5.4914C11.2764 5.58411 11.2359 5.86692 10.6025 6.72469L10.3197 7.09787C9.74551 7.85046 9.74551 7.88863 10.3555 8.4597Z" fill="white"/>
</svg>
