<svg width="15" height="15" viewBox="0 0 15 15" fill="none" xmlns="http://www.w3.org/2000/svg">
<path d="M7.47917 0.0214844C5.99993 0.0214844 4.55391 0.46013 3.32397 1.28195C2.09403 2.10377 1.1354 3.27186 0.569321 4.6385C0.0032406 6.00514 -0.144872 7.50895 0.143713 8.95976C0.432299 10.4106 1.14462 11.7432 2.1906 12.7892C3.23658 13.8352 4.56924 14.5475 6.02006 14.8361C7.47087 15.1247 8.97468 14.9766 10.3413 14.4105C11.708 13.8444 12.876 12.8858 13.6979 11.6559C14.5197 10.4259 14.9583 8.97989 14.9583 7.50065C14.9583 6.51847 14.7649 5.54591 14.389 4.6385C14.0132 3.73108 13.4622 2.90659 12.7677 2.21208C12.0732 1.51758 11.2487 0.966665 10.3413 0.590802C9.43391 0.214939 8.46135 0.0214844 7.47917 0.0214844ZM9.85754 11.3539C9.82963 11.4238 9.78709 11.4869 9.73278 11.5389C9.67846 11.591 9.61364 11.6309 9.54265 11.6558C9.47166 11.6807 9.39615 11.6902 9.32121 11.6835C9.24626 11.6769 9.17361 11.6542 9.10813 11.6172L7.07754 10.0391L5.77467 11.2417C5.74443 11.2641 5.70906 11.2784 5.67181 11.2835C5.63457 11.2886 5.59664 11.2843 5.56151 11.2709L5.81132 9.03538L5.8188 9.04211L5.82403 8.99798C5.82403 8.99798 9.4776 5.67125 9.62644 5.52989C9.77752 5.38853 9.72741 5.35787 9.72741 5.35787C9.73638 5.18585 9.45741 5.35787 9.45741 5.35787L4.61615 8.47219L2.60051 7.78561C2.60051 7.78561 2.29087 7.67492 2.2617 7.43035C2.23104 7.18802 2.61023 7.05639 2.61023 7.05639L10.6257 3.87176C10.6257 3.87176 11.2846 3.57858 11.2846 4.06472L9.85754 11.3539Z" fill="white"/>
</svg>
