<svg width="15" height="15" viewBox="0 0 15 15" fill="none" xmlns="http://www.w3.org/2000/svg">
<circle cx="7.5" cy="7.5" r="7.5" fill="white"/>
<path d="M10.6151 3.8125H4.26744C3.90669 3.8125 3.56071 3.95581 3.30562 4.2109C3.05053 4.46599 2.90723 4.81196 2.90723 5.17271V9.70675C2.90723 10.0675 3.05053 10.4135 3.30562 10.6686C3.56071 10.9237 3.90669 11.067 4.26744 11.067H10.6151C10.9758 11.067 11.3218 10.9237 11.5769 10.6686C11.832 10.4135 11.9753 10.0675 11.9753 9.70675V5.17271C11.9753 4.81196 11.832 4.46599 11.5769 4.2109C11.3218 3.95581 10.9758 3.8125 10.6151 3.8125ZM10.6151 4.71931L7.66797 6.74602C7.59904 6.78582 7.52086 6.80677 7.44127 6.80677C7.36168 6.80677 7.28349 6.78582 7.21456 6.74602L4.26744 4.71931H10.6151Z" fill="#3A383B"/>
</svg>
